<svg width="159" height="40" viewBox="0 0 159 40" fill="none" xmlns="http://www.w3.org/2000/svg">
<path d="M54.9261 14.431C54.9878 14.4187 55.068 14.4125 55.1667 14.4125C55.537 14.4125 55.827 14.5236 56.0368 14.7457C56.2467 14.9556 56.3516 15.2456 56.3516 15.6158C56.3516 16.2576 56.0183 16.6464 55.3519 16.7822C54.7965 16.8932 53.7598 16.9488 52.2417 16.9488H51.6493C50.9705 16.9488 50.3226 16.9303 49.7055 16.8932C49.1007 16.8562 48.3541 16.7822 47.4654 16.6711C46.9224 16.597 46.6509 16.2268 46.6509 15.5603C46.6509 15.2394 46.7126 14.9741 46.836 14.7643C46.9594 14.5421 47.1507 14.4187 47.4099 14.394H47.595C47.7431 13.3943 47.8048 12.4317 47.7802 11.506H47.6506C47.3544 11.506 47.1322 11.4073 46.9841 11.2098C46.8483 11 46.7805 10.6915 46.7805 10.2842C46.7805 9.9386 46.8483 9.65474 46.9841 9.43259C47.1322 9.21043 47.3482 9.09936 47.6321 9.09936H47.7802C47.7925 8.64271 47.7987 7.77261 47.7987 6.48906C47.379 6.31627 47.1692 5.96453 47.1692 5.43383C47.1692 5.03889 47.2741 4.75503 47.484 4.58225C47.6938 4.39712 48.0208 4.27987 48.4651 4.2305C49.0699 4.16879 50.1683 4.13794 51.7604 4.13794C53.3031 4.13794 54.4818 4.18731 55.2963 4.28604C55.6666 4.32307 55.9505 4.43414 56.1479 4.61927C56.3577 4.79206 56.4626 5.06358 56.4626 5.43383C56.4626 5.80409 56.3701 6.10646 56.1849 6.34096C55.9998 6.56311 55.7468 6.66185 55.4259 6.63716C54.2905 6.53843 53.2908 6.48906 52.4269 6.48906C52.0319 6.48906 51.5259 6.5014 50.9088 6.52608L50.4275 6.5446L50.483 9.13638H50.9088C51.5259 9.13638 52.2788 9.14873 53.1674 9.17341L54.3522 9.21043C54.8335 9.21043 55.0742 9.5992 55.0742 10.3767C55.0742 10.747 55.0001 11.037 54.852 11.2468C54.7163 11.4566 54.5188 11.5616 54.2596 11.5616C53.8894 11.5616 53.5747 11.5554 53.3155 11.543L50.9088 11.5245H50.5015C50.4768 12.6353 50.4028 13.635 50.2794 14.5236C50.7484 14.573 51.3346 14.5976 52.0381 14.5976C53.0625 14.5976 54.0251 14.5421 54.9261 14.431Z" fill="#E2E7E9"/>
<path d="M73.3068 17.1339C72.3935 17.1339 71.5728 16.9426 70.8446 16.56C70.1288 16.1774 69.5672 15.6405 69.1599 14.9494C68.765 14.2582 68.5675 13.4622 68.5675 12.5612C68.5675 11.6356 68.7773 10.7964 69.197 10.0435C69.6166 9.27831 70.1966 8.67974 70.9372 8.24777C71.69 7.80346 72.5354 7.58131 73.4734 7.58131C74.4731 7.58131 75.3617 7.82198 76.1392 8.30331C76.9291 8.78464 77.4722 9.4079 77.7684 10.1731C77.8671 10.4076 77.9165 10.6112 77.9165 10.784C77.9165 11.1913 77.6326 11.4628 77.0649 11.5986C76.9044 11.6356 76.7563 11.6541 76.6206 11.6541C76.3737 11.6541 76.1701 11.5924 76.0097 11.469C75.8616 11.3332 75.6949 11.1172 75.5098 10.821C75.2753 10.4631 75.01 10.1793 74.7138 9.96946C74.4176 9.7473 74.0535 9.63623 73.6215 9.63623C72.9304 9.63623 72.3626 9.92009 71.9183 10.4878C71.474 11.0432 71.2519 11.7467 71.2519 12.5983C71.2519 13.3758 71.4493 13.9867 71.8443 14.431C72.2516 14.863 72.8378 15.079 73.603 15.079C74.3312 15.079 74.868 14.8939 75.2136 14.5236C75.5715 14.141 75.7505 13.6967 75.7505 13.1907C75.7505 12.9932 75.8492 12.8143 76.0467 12.6538C76.2565 12.481 76.5342 12.3946 76.8798 12.3946C77.2994 12.3946 77.6141 12.4749 77.8239 12.6353C78.0461 12.7957 78.1571 13.0796 78.1571 13.4869C78.1571 14.104 77.9967 14.6902 77.6758 15.2456C77.3549 15.801 76.8304 16.2576 76.1022 16.6155C75.3864 16.9611 74.4546 17.1339 73.3068 17.1339Z" fill="#E2E7E9"/>
<path d="M88.7771 15.0605C89.0116 15.0975 89.1905 15.1839 89.314 15.3196C89.4497 15.4554 89.5176 15.6961 89.5176 16.0416C89.5176 16.3378 89.4374 16.5909 89.2769 16.8007C89.1288 17.0105 88.9252 17.1154 88.666 17.1154C88.1353 17.1154 87.728 17.0537 87.4442 16.9303C87.1603 16.7945 86.9011 16.5538 86.6666 16.2083C86.3951 16.6155 86.0249 16.9056 85.5559 17.0784C85.0869 17.2388 84.5377 17.319 83.9082 17.319C82.5136 17.319 81.4522 16.9179 80.724 16.1157C79.9959 15.3135 79.6318 14.1965 79.6318 12.7649C79.6318 11.8269 79.8231 10.9938 80.2057 10.2657C80.5883 9.53749 81.119 8.96977 81.7978 8.56249C82.4889 8.15521 83.2788 7.95157 84.1674 7.95157C84.6117 7.95157 85.0252 8.03796 85.4078 8.21075C85.7904 8.38353 86.0804 8.61186 86.2779 8.89572L86.3149 8.65505C86.3396 8.48227 86.4383 8.34034 86.6111 8.22926C86.7839 8.10584 87.0554 8.04413 87.4257 8.04413C87.8206 8.04413 88.1106 8.12435 88.2958 8.2848C88.4809 8.44524 88.5735 8.64888 88.5735 8.89572C88.5735 8.98211 88.5673 9.04999 88.5549 9.09936C88.4809 9.51898 88.4068 10.2225 88.3328 11.2098C88.2958 11.6665 88.2772 12.2527 88.2772 12.9685V13.8942C88.2772 14.2521 88.3081 14.5298 88.3698 14.7272C88.4315 14.9124 88.5673 15.0234 88.7771 15.0605ZM85.6855 13.7831C85.6978 13.2771 85.704 12.4934 85.704 11.432C85.704 11.0123 85.562 10.6729 85.2782 10.4138C85.0067 10.1422 84.6549 10.0065 84.223 10.0065C83.6676 10.0065 83.2109 10.2657 82.853 10.784C82.4951 11.29 82.3161 11.9442 82.3161 12.7464C82.3161 13.5116 82.4766 14.1225 82.7975 14.5791C83.1184 15.0358 83.5503 15.2641 84.0934 15.2641C84.5994 15.2641 84.9881 15.1407 85.2597 14.8938C85.5312 14.6347 85.6731 14.2644 85.6855 13.7831Z" fill="#E2E7E9"/>
<path d="M96.5387 7.65536C97.6248 7.65536 98.464 8.03796 99.0564 8.80315C99.6612 9.55601 99.9636 10.6729 99.9636 12.154L99.9451 16.3378C99.9451 16.597 99.8155 16.7945 99.5563 16.9303C99.3095 17.066 99.0009 17.1339 98.6307 17.1339C98.2727 17.1339 97.9518 17.0722 97.668 16.9488C97.3965 16.8253 97.2607 16.6526 97.2607 16.4304L97.2792 12.1354C97.2792 11.2345 97.1805 10.6051 96.983 10.2471C96.7855 9.88924 96.477 9.71028 96.0574 9.71028C95.6995 9.71028 95.4156 9.87072 95.2058 10.1916C94.996 10.5125 94.817 11.1358 94.6689 12.0614C94.5825 12.5798 94.5393 13.1537 94.5393 13.7831L94.5578 16.1712C94.5578 16.4921 94.4344 16.739 94.1876 16.9117C93.9531 17.0722 93.6322 17.1524 93.2249 17.1524C92.8053 17.1524 92.4721 17.066 92.2252 16.8932C91.9907 16.7204 91.8735 16.4798 91.8735 16.1712C91.8735 13.6041 91.8365 11.6048 91.7624 10.1731C91.7501 10.025 91.713 9.88924 91.6513 9.76582C91.602 9.63006 91.5403 9.50664 91.4662 9.39556C91.3922 9.28449 91.3366 9.19809 91.2996 9.13638C91.2255 9.00062 91.1885 8.86486 91.1885 8.7291C91.1885 8.46992 91.3366 8.22926 91.6328 8.00711C91.9414 7.77261 92.2376 7.65536 92.5214 7.65536C92.6572 7.65536 92.7868 7.69856 92.9102 7.78495C93.046 7.87135 93.1941 8.01328 93.3545 8.21075C93.4903 8.38353 93.589 8.5378 93.6507 8.67356C93.7124 8.80932 93.7433 8.9636 93.7433 9.13638V9.303C93.9654 8.83401 94.2987 8.44524 94.743 8.13669C95.1996 7.81581 95.7982 7.65536 96.5387 7.65536Z" fill="#E2E7E9"/>
<path d="M107.391 13.4313C107.799 13.4313 108.095 13.5116 108.28 13.672C108.465 13.8325 108.558 14.0916 108.558 14.4495C108.558 15.2641 108.298 15.9182 107.78 16.4119C107.262 16.9056 106.608 17.1524 105.818 17.1524C104.744 17.1524 103.96 16.7204 103.467 15.8565C102.973 14.9802 102.726 13.598 102.726 11.7097C102.726 11.1419 102.732 10.7285 102.745 10.4693C102.658 10.457 102.516 10.4508 102.319 10.4508C101.615 10.4384 101.264 10.099 101.264 9.43259C101.264 9.08702 101.35 8.82784 101.523 8.65505C101.708 8.48227 102.029 8.40204 102.485 8.41439L102.893 8.4329C102.979 7.66771 103.121 6.72973 103.318 5.61896C103.368 5.32276 103.504 5.1006 103.726 4.9525C103.96 4.79206 104.256 4.71184 104.614 4.71184C105.034 4.71184 105.361 4.81057 105.595 5.00804C105.83 5.20551 105.947 5.44617 105.947 5.73004L105.929 5.87814L105.836 6.47055C105.688 7.48258 105.589 8.17372 105.54 8.54398C105.96 8.56866 106.28 8.581 106.503 8.581C107.132 8.59334 107.447 8.9204 107.447 9.56218C107.447 9.88306 107.36 10.1237 107.188 10.2842C107.015 10.4446 106.725 10.5248 106.317 10.5248H105.392C105.38 10.7717 105.373 11.1666 105.373 11.7097C105.373 12.623 105.392 13.3264 105.429 13.8201C105.478 14.3014 105.546 14.6285 105.633 14.8013C105.719 14.9741 105.83 15.0605 105.966 15.0605C106.139 15.0605 106.25 15.0049 106.299 14.8938C106.348 14.7828 106.373 14.5853 106.373 14.3014C106.373 13.7214 106.712 13.4313 107.391 13.4313Z" fill="#E2E7E9"/>
<path d="M114.784 17.1709C113.217 17.1709 111.97 16.7636 111.044 15.9491C110.131 15.1222 109.675 13.9682 109.675 12.4872C109.675 11.5245 109.878 10.6668 110.285 9.91392C110.693 9.16107 111.267 8.57483 112.007 8.15521C112.76 7.73559 113.642 7.52577 114.654 7.52577C115.679 7.52577 116.58 7.74176 117.357 8.17372C118.135 8.60568 118.733 9.21044 119.153 9.98797C119.585 10.7532 119.801 11.6294 119.801 12.6168C119.801 14.0608 119.351 15.1839 118.45 15.9861C117.549 16.776 116.327 17.1709 114.784 17.1709ZM114.747 15.116C115.5 15.116 116.08 14.9062 116.487 14.4866C116.907 14.0546 117.117 13.419 117.117 12.5798C117.117 11.7529 116.913 11.0494 116.506 10.4693C116.111 9.87689 115.525 9.58069 114.747 9.58069C114.019 9.58069 113.439 9.84604 113.007 10.3767C112.575 10.9074 112.359 11.6171 112.359 12.5057C112.359 13.3696 112.569 14.0238 112.988 14.4681C113.408 14.9 113.994 15.116 114.747 15.116Z" fill="#E2E7E9"/>
<path d="M125.011 17.282C124.159 17.282 123.4 17.0845 122.734 16.6896C122.067 16.2823 121.592 15.7454 121.308 15.079C121.234 14.8939 121.197 14.7396 121.197 14.6162C121.197 14.357 121.333 14.1101 121.605 13.8756C121.876 13.6412 122.172 13.5239 122.493 13.5239C122.678 13.5239 122.826 13.5671 122.937 13.6535C123.049 13.7275 123.135 13.8016 123.197 13.8756C123.258 13.9374 123.295 13.9806 123.308 14.0052C123.666 14.4249 123.962 14.7211 124.196 14.8938C124.431 15.0666 124.715 15.153 125.048 15.153C125.356 15.153 125.622 15.0913 125.844 14.9679C126.066 14.8321 126.177 14.647 126.177 14.4125C126.177 14.1533 126.048 13.9497 125.788 13.8016C125.529 13.6535 125.11 13.4869 124.53 13.3018C123.888 13.0796 123.363 12.8698 122.956 12.6723C122.561 12.4749 122.209 12.1848 121.901 11.8022C121.605 11.4073 121.456 10.9074 121.456 10.3027C121.456 9.69794 121.629 9.17958 121.975 8.74762C122.32 8.30331 122.777 7.96391 123.345 7.72941C123.925 7.49492 124.548 7.37767 125.215 7.37767C125.93 7.37767 126.547 7.51343 127.066 7.78495C127.597 8.04413 127.998 8.39587 128.269 8.84018C128.541 9.27214 128.676 9.73496 128.676 10.2286C128.676 10.5619 128.584 10.8149 128.399 10.9877C128.214 11.1604 127.905 11.2468 127.473 11.2468C127.09 11.2468 126.825 11.1851 126.677 11.0617C126.541 10.9383 126.455 10.7655 126.418 10.5434C126.381 10.2348 126.282 9.98797 126.122 9.80284C125.974 9.61772 125.671 9.52515 125.215 9.52515C124.869 9.52515 124.597 9.58686 124.4 9.71028C124.215 9.8337 124.122 10.0065 124.122 10.2286C124.122 10.5002 124.252 10.71 124.511 10.8581C124.783 11.0062 125.215 11.1666 125.807 11.3394C126.436 11.5369 126.955 11.7343 127.362 11.9318C127.769 12.1169 128.121 12.4008 128.417 12.7834C128.713 13.1537 128.862 13.6473 128.862 14.2644C128.862 14.9679 128.664 15.548 128.269 16.0046C127.874 16.4613 127.381 16.7883 126.788 16.9858C126.196 17.1833 125.603 17.282 125.011 17.282Z" fill="#E2E7E9"/>
<path d="M76.0448 32.4316C75.6499 32.4316 75.3228 32.3329 75.0636 32.1354C74.8045 31.9379 74.681 31.6726 74.6934 31.3393L74.8415 24.5081C74.8538 24.1749 74.9834 23.9157 75.2303 23.7306C75.4771 23.5331 75.798 23.4344 76.1929 23.4344C76.6002 23.4344 76.9334 23.5331 77.1926 23.7306C77.4518 23.9281 77.5752 24.1996 77.5629 24.5452L77.4148 31.3579C77.4024 31.6911 77.2667 31.9564 77.0075 32.1539C76.7607 32.339 76.4398 32.4316 76.0448 32.4316Z" fill="#E2E7E9"/>
<path d="M85.9286 28.8586C86.3359 28.8586 86.6321 28.9389 86.8172 29.0993C87.0023 29.2597 87.0949 29.5189 87.0949 29.8768C87.0949 30.6914 86.8357 31.3455 86.3174 31.8392C85.799 32.3329 85.1449 32.5797 84.355 32.5797C83.2813 32.5797 82.4976 32.1477 82.0039 31.2838C81.5102 30.4075 81.2634 29.0253 81.2634 27.137C81.2634 26.5692 81.2696 26.1558 81.2819 25.8966C81.1955 25.8843 81.0536 25.8781 80.8561 25.8781C80.1526 25.8657 79.8009 25.5263 79.8009 24.8599C79.8009 24.5143 79.8873 24.2551 80.0601 24.0823C80.2452 23.9096 80.5661 23.8293 81.0227 23.8417L81.43 23.8602C81.5164 23.095 81.6583 22.157 81.8558 21.0463C81.9052 20.7501 82.0409 20.5279 82.2631 20.3798C82.4976 20.2194 82.7938 20.1391 83.1517 20.1391C83.5713 20.1391 83.8984 20.2379 84.1329 20.4353C84.3674 20.6328 84.4846 20.8735 84.4846 21.1573L84.4661 21.3054L84.3735 21.8978C84.2254 22.9099 84.1267 23.601 84.0773 23.9713C84.497 23.996 84.8178 24.0083 85.04 24.0083C85.6694 24.0206 85.9841 24.3477 85.9841 24.9895C85.9841 25.3104 85.8978 25.551 85.725 25.7115C85.5522 25.8719 85.2622 25.9521 84.8549 25.9521H83.9292C83.9169 26.199 83.9107 26.5939 83.9107 27.137C83.9107 28.0502 83.9292 28.7537 83.9663 29.2474C84.0156 29.7287 84.0835 30.0558 84.1699 30.2286C84.2563 30.4014 84.3674 30.4878 84.5031 30.4878C84.6759 30.4878 84.787 30.4322 84.8364 30.3211C84.8857 30.2101 84.9104 30.0126 84.9104 29.7287C84.9104 29.1487 85.2498 28.8586 85.9286 28.8586Z" fill="#E2E7E9"/>
<path d="M93.5436 32.7278C92.4205 32.7278 91.4701 32.518 90.6926 32.0984C89.9274 31.6787 89.3535 31.0987 88.9709 30.3582C88.5883 29.6177 88.397 28.7784 88.397 27.8404C88.397 26.9025 88.613 26.0694 89.045 25.3412C89.4893 24.6007 90.0879 24.0268 90.8407 23.6195C91.6059 23.2122 92.4575 23.0086 93.3955 23.0086C94.2347 23.0086 94.9999 23.1752 95.6911 23.5085C96.3945 23.8417 96.9438 24.323 97.3387 24.9524C97.746 25.5695 97.9496 26.2977 97.9496 27.137C97.9496 27.6677 97.8509 28.0502 97.6534 28.2847C97.4683 28.5069 97.1474 28.618 96.6907 28.618H90.7111C90.7111 28.9142 90.816 29.2166 91.0258 29.5251C91.2356 29.8213 91.5504 30.0743 91.97 30.2841C92.3896 30.4939 92.8895 30.5988 93.4695 30.5988C93.9879 30.5988 94.3952 30.5248 94.6914 30.3767C94.9876 30.2162 95.2961 29.9817 95.617 29.6732C95.8515 29.4634 96.0922 29.3585 96.339 29.3585C96.6229 29.3585 96.8882 29.4696 97.135 29.6917C97.3819 29.9015 97.5053 30.1422 97.5053 30.4137C97.5053 30.6359 97.4313 30.8518 97.2832 31.0617C97.024 31.4689 96.5858 31.8515 95.9687 32.2094C95.3517 32.555 94.5433 32.7278 93.5436 32.7278ZM95.5059 26.9518C95.617 26.9518 95.6849 26.9333 95.7096 26.8963C95.7466 26.8593 95.7651 26.7914 95.7651 26.6926C95.7651 26.2113 95.5306 25.8102 95.0616 25.4893C94.605 25.1684 94.0372 25.008 93.3584 25.008C92.8154 25.008 92.3402 25.1129 91.933 25.3227C91.538 25.5325 91.2356 25.7917 91.0258 26.1002C90.816 26.3964 90.7111 26.6803 90.7111 26.9518H95.5059Z" fill="#E2E7E9"/>
<path d="M104.923 22.9346C105.417 22.9346 105.874 23.0518 106.293 23.2863C106.713 23.5085 107.046 23.8293 107.293 24.249C107.54 24.6686 107.663 25.1561 107.663 25.7115C107.663 26.5137 107.398 27.137 106.867 27.5813C106.349 28.0132 105.676 28.2292 104.849 28.2292C104.417 28.2292 104.115 28.1675 103.942 28.0441C103.769 27.9083 103.683 27.6862 103.683 27.3776C103.683 27.0814 103.745 26.8778 103.868 26.7667C103.992 26.6433 104.164 26.5692 104.387 26.5445C105.115 26.4705 105.479 26.1681 105.479 25.6374C105.479 25.4153 105.423 25.2487 105.312 25.1376C105.213 25.0142 105.072 24.9524 104.886 24.9524C104.553 24.9524 104.245 25.1437 103.961 25.5263C103.677 25.8966 103.442 26.3347 103.257 26.8407C103.072 27.3344 102.955 27.754 102.906 28.0996C102.819 28.6427 102.776 29.6053 102.776 30.9876C102.776 31.6541 102.677 32.1107 102.48 32.3575C102.295 32.592 101.961 32.7093 101.48 32.7093C101.036 32.7093 100.696 32.6229 100.462 32.4501C100.24 32.2773 100.122 32.012 100.11 31.6541V28.655C100.11 27.8651 100.092 27.1987 100.055 26.6556C100.018 26.1002 99.9558 25.3906 99.8694 24.5267L99.7954 23.7676C99.7707 23.4591 99.8694 23.2061 100.092 23.0086C100.326 22.8111 100.647 22.7124 101.054 22.7124C101.745 22.7124 102.116 23.021 102.165 23.638C102.19 23.9342 102.214 24.3539 102.239 24.8969C102.486 24.3168 102.831 23.8479 103.276 23.4899C103.732 23.1197 104.282 22.9346 104.923 22.9346Z" fill="#E2E7E9"/>
<path d="M118.225 30.4878C118.459 30.5248 118.638 30.6112 118.761 30.7469C118.897 30.8827 118.965 31.1234 118.965 31.4689C118.965 31.7651 118.885 32.0181 118.724 32.228C118.576 32.4378 118.373 32.5427 118.113 32.5427C117.583 32.5427 117.175 32.481 116.892 32.3575C116.608 32.2218 116.349 31.9811 116.114 31.6356C115.843 32.0428 115.472 32.3329 115.003 32.5057C114.534 32.6661 113.985 32.7463 113.356 32.7463C111.961 32.7463 110.9 32.3452 110.171 31.543C109.443 30.7408 109.079 29.6238 109.079 28.1922C109.079 27.2542 109.271 26.4211 109.653 25.693C110.036 24.9648 110.566 24.3971 111.245 23.9898C111.936 23.5825 112.726 23.3789 113.615 23.3789C114.059 23.3789 114.473 23.4653 114.855 23.638C115.238 23.8108 115.528 24.0392 115.725 24.323L115.762 24.0823C115.787 23.9096 115.886 23.7676 116.059 23.6566C116.231 23.5331 116.503 23.4714 116.873 23.4714C117.268 23.4714 117.558 23.5516 117.743 23.7121C117.928 23.8725 118.021 24.0762 118.021 24.323C118.021 24.4094 118.015 24.4773 118.002 24.5267C117.928 24.9463 117.854 25.6498 117.78 26.6371C117.743 27.0938 117.725 27.68 117.725 28.3958V29.3215C117.725 29.6794 117.756 29.9571 117.817 30.1545C117.879 30.3397 118.015 30.4507 118.225 30.4878ZM115.133 29.2104C115.145 28.7044 115.151 27.9207 115.151 26.8593C115.151 26.4396 115.009 26.1002 114.726 25.8411C114.454 25.5695 114.102 25.4338 113.67 25.4338C113.115 25.4338 112.658 25.693 112.3 26.2113C111.943 26.7173 111.764 27.3714 111.764 28.1737C111.764 28.9389 111.924 29.5498 112.245 30.0064C112.566 30.4631 112.998 30.6914 113.541 30.6914C114.047 30.6914 114.436 30.568 114.707 30.3211C114.979 30.062 115.121 29.6917 115.133 29.2104ZM112.856 22.3607C112.597 22.3607 112.381 22.2743 112.208 22.1015C112.035 21.9164 111.949 21.6942 111.949 21.435C111.949 21.2869 111.98 21.1326 112.041 20.9722C112.103 20.8118 112.189 20.6822 112.3 20.5834L114.022 19.0099C114.257 18.7877 114.442 18.6334 114.578 18.547C114.726 18.4606 114.886 18.4174 115.059 18.4174C115.33 18.4174 115.559 18.51 115.744 18.6951C115.929 18.8803 116.022 19.1148 116.022 19.3986C116.022 19.5837 115.978 19.7565 115.892 19.917C115.818 20.0774 115.719 20.2132 115.596 20.3243L113.744 21.9164C113.572 22.0768 113.417 22.194 113.282 22.2681C113.146 22.3298 113.004 22.3607 112.856 22.3607Z" fill="#E2E7E9"/>
<path d="M125.949 22.9346C126.443 22.9346 126.899 23.0518 127.319 23.2863C127.739 23.5085 128.072 23.8293 128.319 24.249C128.566 24.6686 128.689 25.1561 128.689 25.7115C128.689 26.5137 128.424 27.137 127.893 27.5813C127.375 28.0132 126.702 28.2292 125.875 28.2292C125.443 28.2292 125.141 28.1675 124.968 28.0441C124.795 27.9083 124.709 27.6862 124.709 27.3776C124.709 27.0814 124.77 26.8778 124.894 26.7667C125.017 26.6433 125.19 26.5692 125.412 26.5445C126.14 26.4705 126.505 26.1681 126.505 25.6374C126.505 25.4153 126.449 25.2487 126.338 25.1376C126.239 25.0142 126.097 24.9524 125.912 24.9524C125.579 24.9524 125.27 25.1437 124.986 25.5263C124.703 25.8966 124.468 26.3347 124.283 26.8407C124.098 27.3344 123.981 27.754 123.931 28.0996C123.845 28.6427 123.802 29.6053 123.802 30.9876C123.802 31.6541 123.703 32.1107 123.505 32.3575C123.32 32.592 122.987 32.7093 122.506 32.7093C122.061 32.7093 121.722 32.6229 121.488 32.4501C121.265 32.2773 121.148 32.012 121.136 31.6541V28.655C121.136 27.8651 121.117 27.1987 121.08 26.6556C121.043 26.1002 120.982 25.3906 120.895 24.5267L120.821 23.7676C120.796 23.4591 120.895 23.2061 121.117 23.0086C121.352 22.8111 121.673 22.7124 122.08 22.7124C122.771 22.7124 123.141 23.021 123.191 23.638C123.215 23.9342 123.24 24.3539 123.265 24.8969C123.512 24.3168 123.857 23.8479 124.302 23.4899C124.758 23.1197 125.307 22.9346 125.949 22.9346Z" fill="#E2E7E9"/>
<path d="M132.234 32.4316C131.839 32.4316 131.512 32.3329 131.253 32.1354C130.994 31.9379 130.87 31.6726 130.883 31.3393L131.031 24.5081C131.043 24.1749 131.173 23.9157 131.419 23.7306C131.666 23.5331 131.987 23.4344 132.382 23.4344C132.789 23.4344 133.123 23.5331 133.382 23.7306C133.641 23.9281 133.764 24.1996 133.752 24.5452L133.604 31.3579C133.592 31.6911 133.456 31.9564 133.197 32.1539C132.95 32.339 132.629 32.4316 132.234 32.4316Z" fill="#E2E7E9"/>
<path d="M141.285 32.5982C139.717 32.5982 138.471 32.1909 137.545 31.3764C136.632 30.5495 136.175 29.3955 136.175 27.9145C136.175 26.9518 136.379 26.0941 136.786 25.3412C137.193 24.5884 137.767 24.0021 138.508 23.5825C139.261 23.1629 140.143 22.9531 141.155 22.9531C142.179 22.9531 143.08 23.1691 143.858 23.601C144.635 24.033 145.234 24.6377 145.654 25.4153C146.086 26.1805 146.302 27.0567 146.302 28.0441C146.302 29.4881 145.851 30.6112 144.95 31.4134C144.049 32.2033 142.827 32.5982 141.285 32.5982ZM141.248 30.5433C142 30.5433 142.581 30.3335 142.988 29.9139C143.407 29.4819 143.617 28.8463 143.617 28.0071C143.617 27.1801 143.414 26.4767 143.006 25.8966C142.611 25.3042 142.025 25.008 141.248 25.008C140.519 25.008 139.939 25.2733 139.507 25.804C139.075 26.3347 138.859 27.0444 138.859 27.933C138.859 28.7969 139.069 29.451 139.489 29.8954C139.909 30.3273 140.495 30.5433 141.248 30.5433Z" fill="#E2E7E9"/>
<path d="M151.511 32.7093C150.66 32.7093 149.901 32.5118 149.234 32.1169C148.568 31.7096 148.093 31.1727 147.809 30.5063C147.735 30.3211 147.698 30.1669 147.698 30.0435C147.698 29.7843 147.834 29.5374 148.105 29.3029C148.377 29.0685 148.673 28.9512 148.994 28.9512C149.179 28.9512 149.327 28.9944 149.438 29.0808C149.549 29.1548 149.636 29.2289 149.697 29.3029C149.759 29.3647 149.796 29.4078 149.808 29.4325C150.166 29.8522 150.462 30.1484 150.697 30.3211C150.931 30.4939 151.215 30.5803 151.549 30.5803C151.857 30.5803 152.122 30.5186 152.345 30.3952C152.567 30.2594 152.678 30.0743 152.678 29.8398C152.678 29.5806 152.548 29.377 152.289 29.2289C152.03 29.0808 151.61 28.9142 151.03 28.729C150.388 28.5069 149.864 28.2971 149.457 28.0996C149.062 27.9021 148.71 27.6121 148.401 27.2295C148.105 26.8346 147.957 26.3347 147.957 25.73C147.957 25.1252 148.13 24.6069 148.475 24.1749C148.821 23.7306 149.278 23.3912 149.845 23.1567C150.425 22.9222 151.049 22.805 151.715 22.805C152.431 22.805 153.048 22.9407 153.566 23.2122C154.097 23.4714 154.498 23.8232 154.77 24.2675C155.041 24.6994 155.177 25.1623 155.177 25.6559C155.177 25.9892 155.084 26.2422 154.899 26.415C154.714 26.5877 154.406 26.6741 153.974 26.6741C153.591 26.6741 153.326 26.6124 153.178 26.489C153.042 26.3656 152.955 26.1928 152.918 25.9706C152.881 25.6621 152.783 25.4153 152.622 25.2301C152.474 25.045 152.172 24.9524 151.715 24.9524C151.37 24.9524 151.098 25.0142 150.901 25.1376C150.715 25.261 150.623 25.4338 150.623 25.6559C150.623 25.9275 150.752 26.1373 151.012 26.2854C151.283 26.4335 151.715 26.5939 152.308 26.7667C152.937 26.9642 153.455 27.1616 153.863 27.3591C154.27 27.5442 154.622 27.8281 154.918 28.2107C155.214 28.5809 155.362 29.0746 155.362 29.6917C155.362 30.3952 155.165 30.9753 154.77 31.4319C154.375 31.8886 153.881 32.2156 153.289 32.4131C152.696 32.6106 152.104 32.7093 151.511 32.7093Z" fill="#E2E7E9"/>
<path d="M63.4725 7.65536C64.5585 7.65536 65.3978 8.03796 65.9902 8.80315C66.595 9.55601 66.8973 10.6729 66.8973 12.154C66.8973 12.154 66.7394 16.3534 66.6971 17.1154C66.6548 17.8773 66.2131 24.829 66.2131 24.829C66.1391 26.1789 66.1391 27.0197 66.1391 28.1922C66.1391 28.7969 66.1637 29.2412 66.2131 29.5251C66.2748 29.809 66.3859 30.0064 66.5463 30.1175C66.7191 30.2286 66.9845 30.2841 67.3424 30.2841C68.1076 30.2841 69.4282 30.1113 71.3041 29.7658C71.3658 29.7534 71.4522 29.7473 71.5633 29.7473C71.8842 29.7473 72.1372 29.8707 72.3223 30.1175C72.5198 30.352 72.6185 30.6297 72.6185 30.9506C72.6185 31.6047 72.1434 32.0181 71.193 32.1909C70.3414 32.3514 69.6935 32.4625 69.2492 32.5242C68.8172 32.5735 68.268 32.5982 67.6016 32.5982C66.3921 32.5982 65.5034 32.4686 64.9357 32.2094C64.3803 31.9503 64.0101 31.5183 63.825 30.9136C63.6398 30.3088 63.5473 29.377 63.5473 28.1181C63.5473 26.6988 63.609 25.3968 63.7324 24.2119C63.8682 23.0271 64.0307 19.1996 64.2068 16.7112C64.383 14.2227 64.213 12.1354 64.213 12.1354C64.213 11.2345 64.1142 10.6051 63.9168 10.2471C63.7193 9.88924 63.4108 9.71028 62.9911 9.71028C62.6332 9.71028 62.3494 9.87072 62.1395 10.1916C61.9297 10.5125 61.7508 11.1358 61.6027 12.0614C61.5163 12.5798 61.4731 13.1537 61.4731 13.7831L61.4916 16.1712C61.4916 16.4921 61.3682 16.739 61.1213 16.9117C60.8869 17.0722 60.566 17.1524 60.1587 17.1524C59.7391 17.1524 59.4058 17.066 59.159 16.8932C58.9245 16.7204 58.8073 16.4798 58.8073 16.1712C58.8073 13.6041 58.7702 11.6048 58.6962 10.1731C58.6838 10.025 58.6468 9.88924 58.5851 9.76582C58.5357 9.63006 58.474 9.50664 58.4 9.39556C58.3259 9.28449 58.2704 9.19809 58.2334 9.13638C58.1593 9.00062 58.1223 8.86486 58.1223 8.7291C58.1223 8.46992 58.2704 8.22926 58.5666 8.00711C58.8751 7.77261 59.1713 7.65536 59.4552 7.65536C59.591 7.65536 59.7205 7.69856 59.844 7.78495C59.9797 7.87135 60.1278 8.01328 60.2883 8.21075C60.424 8.38353 60.5228 8.5378 60.5845 8.67356C60.6462 8.80932 60.677 8.9636 60.677 9.13638V9.303C60.8992 8.83401 61.2324 8.44524 61.6767 8.13669C62.1334 7.81581 62.732 7.65536 63.4725 7.65536Z" fill="#E2E7E9"/>
<path d="M74.3277 20.7719C74.3405 20.8571 74.373 20.9382 74.4226 21.0087C74.4887 21.1018 74.5822 21.1722 74.6901 21.2099L75.2237 21.3843C75.3333 21.4194 75.4326 21.4801 75.5146 21.5621C75.596 21.6434 75.6574 21.7426 75.6946 21.8529L75.8649 22.3788C75.9009 22.4888 75.9706 22.5846 76.0642 22.6528C76.1577 22.721 76.2704 22.758 76.3862 22.7586C76.502 22.7592 76.615 22.7234 76.7093 22.6562C76.8036 22.589 76.8743 22.4939 76.9115 22.3843L77.0852 21.8515C77.1226 21.7443 77.1844 21.6471 77.2656 21.5676C77.3468 21.4881 77.4452 21.4284 77.5533 21.3932L78.0787 21.223C78.1888 21.1872 78.2848 21.1176 78.3531 21.0242C78.4215 20.9307 78.4586 20.8182 78.4594 20.7024C78.4602 20.5867 78.4245 20.4736 78.3574 20.3793C78.2903 20.285 78.1952 20.2141 78.0856 20.1769L77.5526 20.0032C77.4438 19.9664 77.345 19.9049 77.2639 19.8236C77.1829 19.7423 77.1217 19.6434 77.0852 19.5345L76.9128 19.008C76.8783 18.8971 76.8096 18.8 76.7165 18.7305C76.6234 18.6609 76.5108 18.6225 76.3946 18.6208C76.2784 18.619 76.1647 18.654 76.0695 18.7207C75.9744 18.7874 75.9028 18.8824 75.8649 18.9922L75.6911 19.5242C75.6553 19.6331 75.5946 19.7323 75.5119 19.8137C75.4302 19.8946 75.3312 19.9558 75.2223 19.9928L74.697 20.1638C74.6154 20.1917 74.5415 20.2382 74.481 20.2997C74.4206 20.3611 74.3752 20.4357 74.3486 20.5177C74.322 20.5997 74.3148 20.6867 74.3277 20.7719Z" fill="#E2E7E9"/>
<path d="M130.541 20.7719C130.554 20.8571 130.586 20.9382 130.636 21.0087C130.702 21.1018 130.795 21.1722 130.903 21.2099L131.437 21.3843C131.546 21.4194 131.646 21.4801 131.728 21.5621C131.809 21.6434 131.87 21.7426 131.908 21.8529L132.078 22.3787C132.114 22.4887 132.184 22.5846 132.277 22.6528C132.371 22.721 132.483 22.758 132.599 22.7586C132.715 22.7592 132.828 22.7234 132.922 22.6562C133.017 22.589 133.087 22.4939 133.125 22.3843L133.298 21.8515C133.336 21.7443 133.397 21.6471 133.479 21.5676C133.56 21.4881 133.658 21.4284 133.766 21.3932L134.292 21.223C134.402 21.1872 134.498 21.1176 134.566 21.0242C134.635 20.9307 134.672 20.8181 134.672 20.7024C134.673 20.5867 134.638 20.4736 134.57 20.3793C134.503 20.285 134.408 20.2141 134.299 20.1768L133.766 20.0032C133.657 19.9664 133.558 19.9049 133.477 19.8236C133.396 19.7423 133.335 19.6434 133.298 19.5345L133.126 19.008C133.091 18.8971 133.023 18.8 132.93 18.7304C132.837 18.6609 132.724 18.6225 132.608 18.6208C132.492 18.619 132.378 18.654 132.283 18.7207C132.188 18.7874 132.116 18.8824 132.078 18.9922L131.904 19.5242C131.868 19.6331 131.808 19.7323 131.725 19.8137C131.643 19.8945 131.544 19.9558 131.435 19.9928L130.91 20.1637C130.829 20.1917 130.755 20.2382 130.694 20.2996C130.634 20.3611 130.588 20.4357 130.562 20.5177C130.535 20.5997 130.528 20.6867 130.541 20.7719Z" fill="#E2E7E9"/>
<path fill-rule="evenodd" clip-rule="evenodd" d="M20.1821 23.1168C16.8082 24.0244 14.0996 24.6396 10.444 25.3286C9.20966 25.5613 8.18608 25.7701 8.16944 25.7924C8.1527 25.8148 8.03639 26.3776 7.91079 27.0428C7.78518 27.7081 7.54326 28.5941 7.37307 29.0114L7.06366 29.7703L5.81784 29.9093C4.40375 30.0672 4.08763 30.2339 3.80635 30.9703C3.50163 31.768 3.61105 32.5101 4.12946 33.161C4.3118 33.39 4.4957 33.4735 4.89678 33.5092C5.18688 33.5352 9.02401 33.1891 13.4238 32.7404L21.4234 31.9247L21.6073 32.262C22.5568 34.0046 23.8128 35.0499 25.513 35.5127C26.1599 35.6888 28.1821 35.6882 28.8305 35.5118C30.5272 35.0501 31.7842 34.0034 32.7331 32.262L32.917 31.9247L40.9166 32.7404C45.3164 33.1891 49.1535 33.5352 49.4436 33.5092C49.8434 33.4736 50.0299 33.3893 50.2141 33.161C50.8902 32.323 50.8413 31.0158 50.1085 30.341C49.8543 30.1068 49.6059 30.0353 48.714 29.9389C48.1173 29.8744 47.5853 29.8021 47.532 29.7782C47.333 29.6892 46.8293 28.186 46.611 27.0298C46.4868 26.3716 46.3724 25.816 46.3568 25.795C46.3412 25.774 45.1729 25.536 43.7604 25.2661C40.9984 24.7384 38.4578 24.1714 35.6755 23.462C34.034 23.0434 33.8452 23.0199 32.5492 23.0737C31.501 23.1173 31.005 23.1956 30.4829 23.4002C29.5255 23.7751 28.4869 24.5323 27.824 25.3384L27.2622 26.0219L26.6875 25.321C26.0624 24.5585 24.8395 23.6872 23.906 23.3392C23.3585 23.1352 20.7034 22.9767 20.1821 23.1168ZM22.9858 25.2012C23.5249 25.3276 24.0463 25.5515 24.5137 25.8439C25.2406 26.2985 26.0935 27.1133 26.3921 28.0231C26.5027 28.3604 27.993 28.4626 28.1854 28.0231C28.4634 27.1941 29.0742 26.4548 29.9607 25.8879C31.0084 25.2179 31.5291 25.0754 32.8711 25.0915C33.8097 25.1027 34.3745 25.1976 35.9514 25.6092C38.3943 26.2466 40.1118 26.6315 42.6637 27.1136C43.7762 27.3237 44.7852 27.5372 44.9058 27.5882C45.0769 27.6602 45.18 27.8898 45.3751 28.6328C45.5908 29.4537 45.6047 29.5849 45.4765 29.5849C45.3947 29.5849 42.2917 29.2798 38.581 28.907C31.8404 28.2297 31.8339 28.2293 31.4416 28.4626C31.0966 28.6676 31.0095 28.8078 30.7243 29.6153C30.0897 31.4127 29.1375 32.0722 27.1728 32.0756C25.2763 32.0788 24.2167 31.3813 23.6745 29.7725C23.4041 28.9706 23.1331 28.5638 22.7336 28.3604C22.5448 28.2643 20.7743 28.4032 15.7467 28.9084C12.0429 29.2804 8.98255 29.5849 8.94577 29.5849C8.90889 29.5849 8.95496 29.3464 9.04792 29.0548C9.14088 28.7633 9.24672 28.3429 9.28304 28.1205C9.32386 27.8709 9.42491 27.6784 9.54748 27.6169C9.65653 27.5622 10.4285 27.3935 11.263 27.2421C13.2824 26.8756 16.2522 26.2201 18.3431 25.6793C21.1243 24.96 21.7025 24.9004 22.9858 25.2012Z" fill="#E2E7E9"/>
<path fill-rule="evenodd" clip-rule="evenodd" d="M17.9895 23.6886C18.6989 23.51 19.4238 23.3208 20.1821 23.1168C20.7034 22.9767 23.3585 23.1352 23.906 23.3392C24.8395 23.6872 26.0624 24.5585 26.6875 25.321L27.2622 26.0219L27.824 25.3384C28.4869 24.5323 29.5255 23.7751 30.4829 23.4002C31.005 23.1956 31.501 23.1173 32.5492 23.0737C33.8452 23.0199 34.034 23.0434 35.6755 23.462C36.0278 23.5518 36.376 23.6393 36.7215 23.7248C36.6428 23.304 36.5149 22.8926 36.3395 22.4994C36.0246 21.7933 35.5637 21.1618 34.9872 20.6464C34.8766 19.814 34.6306 19.0053 34.2589 18.2523C35.301 16.1895 36.0618 13.9963 36.5209 11.7313C36.8521 10.0128 37.07 7.67041 36.225 6.27203C36.0313 5.92762 35.7477 5.64226 35.4046 5.44636C35.0614 5.25047 34.6715 5.15139 34.2765 5.1597C31.5435 5.1597 29.858 9.88186 28.8931 14.1188C27.8769 13.9095 26.8287 13.9095 25.8125 14.1188C24.8476 9.88186 23.1621 5.1597 20.4291 5.1597C20.0344 5.15107 19.6447 5.24964 19.3016 5.44494C18.9585 5.64024 18.6747 5.92494 18.4806 6.26873C17.6345 7.66711 17.8546 10.0095 18.1846 11.728C18.6436 13.9942 19.4044 16.1885 20.4467 18.2523C20.0747 19.0064 19.8286 19.8162 19.7184 20.6497C19.1672 21.1431 18.7212 21.7426 18.4071 22.4123C18.2158 22.8201 18.0759 23.2488 17.9895 23.6886ZM25.187 22.7144C25.3079 22.5334 25.3724 22.3207 25.3724 22.1031C25.3724 21.8113 25.2565 21.5315 25.0501 21.3251C24.8438 21.1188 24.564 21.0029 24.2722 21.0029C24.0546 21.0029 23.8419 21.0674 23.6609 21.1883C23.48 21.3092 23.339 21.481 23.2557 21.6821C23.1724 21.8831 23.1506 22.1043 23.1931 22.3178C23.2355 22.5312 23.3403 22.7272 23.4942 22.8811C23.6481 23.035 23.8441 23.1397 24.0575 23.1822C24.271 23.2247 24.4922 23.2029 24.6932 23.1196C24.8943 23.0363 25.0661 22.8953 25.187 22.7144ZM29.8222 21.1883C30.0031 21.0674 30.2158 21.0029 30.4334 21.0029C30.7252 21.0029 31.0051 21.1188 31.2114 21.3251C31.4177 21.5315 31.5336 21.8113 31.5336 22.1031C31.5336 22.3207 31.4691 22.5334 31.3482 22.7144C31.2273 22.8953 31.0555 23.0363 30.8545 23.1196C30.6534 23.2029 30.4322 23.2247 30.2188 23.1822C30.0054 23.1397 29.8093 23.035 29.6554 22.8811C29.5016 22.7272 29.3968 22.5312 29.3543 22.3178C29.3119 22.1043 29.3337 21.8831 29.4169 21.6821C29.5002 21.481 29.6412 21.3092 29.8222 21.1883Z" fill="#E2E7E9"/>
<path d="M4.44019 14.3418C4.36663 14.2376 4.32728 14.1132 4.3276 13.9857C4.32792 13.8581 4.36788 13.7339 4.44196 13.6301C4.51882 13.5249 4.62523 13.4451 4.7482 13.4013L5.55991 13.1371C5.76336 13.0693 5.94827 12.9551 6.10001 12.8036C6.25176 12.6521 6.3662 12.4674 6.43429 12.2641L6.70032 11.4418C6.74434 11.3203 6.8254 11.2156 6.93208 11.1425C7.03875 11.0695 7.16567 11.0317 7.29494 11.0346C7.42422 11.0375 7.54933 11.0808 7.65266 11.1585C7.75598 11.2363 7.83231 11.3445 7.87089 11.4679L8.13574 12.2806C8.20348 12.4841 8.31763 12.6691 8.46917 12.821C8.62072 12.9728 8.80551 13.0873 9.00893 13.1554L9.82951 13.4226C9.9504 13.4656 10.0549 13.5453 10.1284 13.6504C10.2019 13.7556 10.2408 13.881 10.2397 14.0093C10.2386 14.1376 10.1976 14.2624 10.1222 14.3662C10.0469 14.4701 9.94107 14.5479 9.81946 14.5889L8.99179 14.859C8.79382 14.9268 8.61381 15.0386 8.46533 15.1861C8.31684 15.3335 8.20375 15.5127 8.13456 15.7102L7.87029 16.5318C7.82717 16.6526 7.7475 16.757 7.64233 16.8305C7.53717 16.904 7.41172 16.9429 7.28342 16.9419C7.15512 16.9408 7.03033 16.8999 6.92637 16.8247C6.82241 16.7495 6.74443 16.6439 6.70328 16.5223L6.4402 15.7102C6.3723 15.5056 6.25734 15.3198 6.10455 15.1678C5.95176 15.0157 5.76542 14.9017 5.5605 14.8348L4.73815 14.5676C4.61755 14.525 4.5135 14.4458 4.44019 14.3418Z" fill="#E2E7E9"/>
<path d="M48.4707 23.1719C48.4814 23.2429 48.5085 23.3104 48.5498 23.3692C48.6049 23.4468 48.6828 23.5054 48.7727 23.5369L49.2174 23.6822C49.3087 23.7115 49.3915 23.762 49.4598 23.8304C49.5276 23.8981 49.5788 23.9808 49.6098 24.0727L49.7517 24.5109C49.7817 24.6026 49.8398 24.6825 49.9178 24.7393C49.9957 24.7961 50.0896 24.827 50.1861 24.8275C50.2826 24.828 50.3768 24.7981 50.4554 24.7421C50.5339 24.6861 50.5929 24.6069 50.6238 24.5155L50.7686 24.0716C50.7998 23.9822 50.8513 23.9012 50.9189 23.8349C50.9866 23.7687 51.0687 23.719 51.1587 23.6897L51.5965 23.5478C51.6883 23.5179 51.7683 23.46 51.8252 23.3821C51.8822 23.3042 51.9132 23.2104 51.9138 23.114C51.9144 23.0175 51.8847 22.9233 51.8288 22.8447C51.7729 22.7661 51.6936 22.7071 51.6023 22.676L51.1582 22.5313C51.0675 22.5006 50.9852 22.4494 50.9176 22.3817C50.85 22.3139 50.799 22.2315 50.7686 22.1407L50.625 21.702C50.5962 21.6096 50.5389 21.5286 50.4614 21.4707C50.3838 21.4127 50.2899 21.3807 50.1931 21.3793C50.0963 21.3778 50.0015 21.4069 49.9222 21.4625C49.843 21.5181 49.7833 21.5973 49.7517 21.6888L49.6069 22.1321C49.577 22.2229 49.5265 22.3056 49.4575 22.3733C49.3895 22.4408 49.3069 22.4918 49.2162 22.5227L48.7784 22.6651C48.7105 22.6884 48.6489 22.7271 48.5985 22.7783C48.5481 22.8295 48.5103 22.8917 48.4881 22.96C48.466 23.0283 48.46 23.1009 48.4707 23.1719Z" fill="#E2E7E9"/>
</svg>
