<svg width="27" height="26" viewBox="0 0 27 26" fill="none" xmlns="http://www.w3.org/2000/svg">
<path d="M11.8983 0.495148C12.3567 0.171644 12.9045 -0.00139236 13.4657 5.72205e-06C14.0269 0.00140381 14.5737 0.177166 15.0305 0.502949C15.4936 0.840937 15.8448 1.30892 16.0373 1.8497L17.2002 5.41936C17.4986 6.3141 18.0011 7.12724 18.668 7.79458C19.3348 8.46192 20.1478 8.96519 21.0427 9.26462L24.6615 10.4346C25.1965 10.6282 25.6572 10.9846 25.9788 11.4538C26.3004 11.9229 26.4666 12.481 26.4539 13.0496C26.4413 13.6181 26.2505 14.1683 25.9083 14.6227C25.5662 15.0771 25.0901 15.4127 24.547 15.5824L20.9699 16.7471C20.0741 17.045 19.2599 17.547 18.5917 18.2135C17.9234 18.8799 17.4195 19.6926 17.1196 20.5872L15.9437 24.1959C15.7543 24.7275 15.4039 25.187 14.9411 25.5103C14.4783 25.8336 13.9262 26.0048 13.3615 25.9999C12.7969 25.995 12.2478 25.8144 11.7906 25.4832C11.3335 25.1519 10.991 24.6865 10.8108 24.1517L9.62192 20.5118C9.32347 19.6412 8.83126 18.8496 8.18236 18.1966C7.53346 17.5436 6.74478 17.0462 5.8757 16.7419L2.25955 15.5798C1.72778 15.3902 1.26829 15.0398 0.944856 14.5773C0.621424 14.1148 0.450103 13.5631 0.454679 12.9989C0.459255 12.4347 0.639501 11.8859 0.970392 11.4287C1.30128 10.9715 1.7664 10.6286 2.30118 10.4476L5.8757 9.29062C6.77602 8.99204 7.59366 8.48645 8.26284 7.81453C8.93202 7.14261 9.43407 6.32312 9.72859 5.42196L10.9045 1.8055C11.0918 1.27512 11.4404 0.817535 11.8983 0.495148Z" fill="#9547A5"/>
</svg>
